<svg width="18" height="19" viewBox="0 0 18 19" fill="none" xmlns="http://www.w3.org/2000/svg">
<g clip-path="url(#clip0_31_440)">
<path fill-rule="evenodd" clip-rule="evenodd" d="M0 5.9375C0 5.30761 0.236321 4.70352 0.656976 4.25812C1.07763 3.81272 1.64816 3.5625 2.24306 3.5625H10.6545C11.1986 3.56243 11.7241 3.77173 12.1332 4.15141C12.5424 4.5311 12.8072 5.05529 12.8785 5.62637L16.3665 3.98525C16.5372 3.9047 16.7242 3.87061 16.9105 3.88608C17.0969 3.90154 17.2766 3.96607 17.4334 4.07379C17.5902 4.18152 17.7191 4.32903 17.8083 4.50291C17.8976 4.67679 17.9444 4.87154 17.9444 5.06944V13.9306C17.9443 14.1283 17.8975 14.3229 17.8083 14.4966C17.7191 14.6704 17.5903 14.8178 17.4337 14.9255C17.2771 15.0332 17.0975 15.0977 16.9113 15.1133C16.7252 15.1289 16.5383 15.095 16.3676 15.0148L12.8785 13.3736C12.8072 13.9447 12.5424 14.4689 12.1332 14.8486C11.7241 15.2283 11.1986 15.4376 10.6545 15.4375H2.24306C1.64816 15.4375 1.07763 15.1873 0.656976 14.7419C0.236321 14.2965 0 13.6924 0 13.0625V5.9375ZM12.8976 12.0828L16.8229 13.9306V5.06944L12.8976 6.91719V12.0828ZM2.24306 4.75C1.94561 4.75 1.66034 4.87511 1.45002 5.09781C1.23969 5.32051 1.12153 5.62256 1.12153 5.9375V13.0625C1.12153 13.3774 1.23969 13.6795 1.45002 13.9022C1.66034 14.1249 1.94561 14.25 2.24306 14.25H10.6545C10.952 14.25 11.2372 14.1249 11.4476 13.9022C11.6579 13.6795 11.776 13.3774 11.776 13.0625V5.9375C11.776 5.62256 11.6579 5.32051 11.4476 5.09781C11.2372 4.87511 10.952 4.75 10.6545 4.75H2.24306Z" fill="black"/>
</g>
<defs>
<clipPath id="clip0_31_440">
<rect width="17.9444" height="19" fill="white"/>
</clipPath>
</defs>
</svg>
