<svg width="15" height="14" viewBox="0 0 15 14" fill="none" xmlns="http://www.w3.org/2000/svg">
<g clip-path="url(#clip0_514_12687)">
<path fill-rule="evenodd" clip-rule="evenodd" d="M0.979004 4.375C0.979004 3.91087 1.1568 3.46575 1.47329 3.13756C1.78978 2.80937 2.21903 2.625 2.66661 2.625H8.99511C9.40443 2.62495 9.79982 2.77917 10.1076 3.05894C10.4155 3.33871 10.6147 3.72495 10.6684 4.14575L13.2926 2.9365C13.421 2.87715 13.5618 2.85203 13.7019 2.86342C13.8421 2.87482 13.9774 2.92237 14.0953 3.00174C14.2133 3.08112 14.3103 3.18981 14.3774 3.31793C14.4446 3.44606 14.4798 3.58955 14.4798 3.73538V10.2646C14.4797 10.4103 14.4445 10.5537 14.3774 10.6817C14.3103 10.8097 14.2134 10.9184 14.0956 10.9977C13.9777 11.0771 13.8426 11.1246 13.7025 11.1361C13.5625 11.1476 13.4218 11.1227 13.2934 11.0635L10.6684 9.85425C10.6147 10.275 10.4155 10.6613 10.1076 10.9411C9.79982 11.2208 9.40443 11.375 8.99511 11.375H2.66661C2.21903 11.375 1.78978 11.1906 1.47329 10.8624C1.1568 10.5342 0.979004 10.0891 0.979004 9.625V4.375ZM10.6827 8.90313L13.636 10.2646V3.73538L10.6827 5.09687V8.90313ZM2.66661 3.5C2.44282 3.5 2.22819 3.59219 2.06995 3.75628C1.9117 3.92038 1.8228 4.14294 1.8228 4.375V9.625C1.8228 9.85706 1.9117 10.0796 2.06995 10.2437C2.22819 10.4078 2.44282 10.5 2.66661 10.5H8.99511C9.2189 10.5 9.43352 10.4078 9.59177 10.2437C9.75001 10.0796 9.83891 9.85706 9.83891 9.625V4.375C9.83891 4.14294 9.75001 3.92038 9.59177 3.75628C9.43352 3.59219 9.2189 3.5 8.99511 3.5H2.66661Z" fill="black"/>
</g>
<defs>
<clipPath id="clip0_514_12687">
<rect width="13.5008" height="14" fill="white" transform="translate(0.979004)"/>
</clipPath>
</defs>
</svg>
