<svg width="31" height="31" viewBox="0 0 31 31" fill="none" xmlns="http://www.w3.org/2000/svg">
<path fill-rule="evenodd" clip-rule="evenodd" d="M0 2.90625C0 2.64932 0.102064 2.40292 0.28374 2.22124C0.465416 2.03956 0.711821 1.9375 0.96875 1.9375H3.875C4.09109 1.93756 4.30096 2.00987 4.47123 2.14292C4.6415 2.27598 4.76239 2.46214 4.81469 2.67181L5.59937 5.8125H28.0937C28.237 5.81259 28.3785 5.84445 28.508 5.90579C28.6374 5.96714 28.7517 6.05644 28.8425 6.16725C28.9333 6.27807 28.9984 6.40765 29.0331 6.54666C29.0678 6.68566 29.0712 6.83063 29.0431 6.97113L27.1056 16.6586C27.0632 16.8699 26.9516 17.061 26.7885 17.2017C26.6253 17.3424 26.4199 17.4247 26.2047 17.4356L7.998 18.3501L8.55406 21.3125H25.1875C25.4444 21.3125 25.6908 21.4146 25.8725 21.5962C26.0542 21.7779 26.1562 22.0243 26.1562 22.2812C26.1562 22.5382 26.0542 22.7846 25.8725 22.9663C25.6908 23.1479 25.4444 23.25 25.1875 23.25H7.75C7.52415 23.2498 7.30547 23.1707 7.13176 23.0263C6.95806 22.882 6.84024 22.6815 6.79869 22.4595L3.89437 6.98856L3.11937 3.875H0.96875C0.711821 3.875 0.465416 3.77294 0.28374 3.59126C0.102064 3.40958 0 3.16318 0 2.90625ZM6.01012 7.75L7.63762 16.4281L25.3541 15.5388L26.9119 7.75H6.01012ZM9.6875 23.25C8.65979 23.25 7.67416 23.6583 6.94746 24.385C6.22076 25.1117 5.8125 26.0973 5.8125 27.125C5.8125 28.1527 6.22076 29.1383 6.94746 29.865C7.67416 30.5917 8.65979 31 9.6875 31C10.7152 31 11.7008 30.5917 12.4275 29.865C13.1542 29.1383 13.5625 28.1527 13.5625 27.125C13.5625 26.0973 13.1542 25.1117 12.4275 24.385C11.7008 23.6583 10.7152 23.25 9.6875 23.25ZM23.25 23.25C22.2223 23.25 21.2367 23.6583 20.51 24.385C19.7833 25.1117 19.375 26.0973 19.375 27.125C19.375 28.1527 19.7833 29.1383 20.51 29.865C21.2367 30.5917 22.2223 31 23.25 31C24.2777 31 25.2633 30.5917 25.99 29.865C26.7167 29.1383 27.125 28.1527 27.125 27.125C27.125 26.0973 26.7167 25.1117 25.99 24.385C25.2633 23.6583 24.2777 23.25 23.25 23.25ZM9.6875 25.1875C9.17364 25.1875 8.68083 25.3916 8.31748 25.755C7.95413 26.1183 7.75 26.6111 7.75 27.125C7.75 27.6389 7.95413 28.1317 8.31748 28.495C8.68083 28.8584 9.17364 29.0625 9.6875 29.0625C10.2014 29.0625 10.6942 28.8584 11.0575 28.495C11.4209 28.1317 11.625 27.6389 11.625 27.125C11.625 26.6111 11.4209 26.1183 11.0575 25.755C10.6942 25.3916 10.2014 25.1875 9.6875 25.1875ZM23.25 25.1875C22.7361 25.1875 22.2433 25.3916 21.88 25.755C21.5166 26.1183 21.3125 26.6111 21.3125 27.125C21.3125 27.6389 21.5166 28.1317 21.88 28.495C22.2433 28.8584 22.7361 29.0625 23.25 29.0625C23.7639 29.0625 24.2567 28.8584 24.62 28.495C24.9834 28.1317 25.1875 27.6389 25.1875 27.125C25.1875 26.6111 24.9834 26.1183 24.62 25.755C24.2567 25.3916 23.7639 25.1875 23.25 25.1875Z" fill="black"/>
</svg>
