<svg width="80" height="80" viewBox="0 0 80 80" fill="none" xmlns="http://www.w3.org/2000/svg">
<path fill-rule="evenodd" clip-rule="evenodd" d="M23.2296 8.2296C23.4618 7.99679 23.7377 7.81207 24.0414 7.68604C24.3451 7.56001 24.6707 7.49513 24.9996 7.49513C25.3284 7.49513 25.654 7.56001 25.9578 7.68604C26.2615 7.81207 26.5374 7.99679 26.7696 8.2296L56.7696 38.2296C57.0024 38.4618 57.1871 38.7377 57.3131 39.0414C57.4392 39.3452 57.5041 39.6708 57.5041 39.9996C57.5041 40.3284 57.4392 40.654 57.3131 40.9578C57.1871 41.2615 57.0024 41.5374 56.7696 41.7696L26.7696 71.7696C26.3002 72.239 25.6635 72.5028 24.9996 72.5028C24.3357 72.5028 23.699 72.239 23.2296 71.7696C22.7602 71.3002 22.4964 70.6635 22.4964 69.9996C22.4964 69.3357 22.7602 68.699 23.2296 68.2296L51.4646 39.9996L23.2296 11.7696C22.9968 11.5374 22.8121 11.2615 22.686 10.9578C22.56 10.654 22.4951 10.3284 22.4951 9.9996C22.4951 9.67077 22.56 9.34516 22.686 9.04143C22.8121 8.73771 22.9968 8.46183 23.2296 8.2296Z" fill="black"/>
</svg>
