<svg width="18" height="19" viewBox="0 0 18 19" fill="none" xmlns="http://www.w3.org/2000/svg">
<path fill-rule="evenodd" clip-rule="evenodd" d="M12.3641 2.72785C12.4137 2.77735 12.4531 2.83615 12.48 2.9009C12.5068 2.96564 12.5207 3.03504 12.5207 3.10514C12.5207 3.17523 12.5068 3.24464 12.48 3.30938C12.4531 3.37412 12.4137 3.43292 12.3641 3.48243L6.34559 9.49987L12.3641 15.5173C12.4642 15.6174 12.5204 15.7531 12.5204 15.8946C12.5204 16.0361 12.4642 16.1718 12.3641 16.2719C12.264 16.372 12.1283 16.4282 11.9868 16.4282C11.8453 16.4282 11.7096 16.372 11.6095 16.2719L5.21479 9.87716C5.16516 9.82766 5.12579 9.76886 5.09892 9.70411C5.07206 9.63937 5.05823 9.56997 5.05823 9.49987C5.05823 9.42978 5.07206 9.36037 5.09892 9.29563C5.12579 9.23089 5.16516 9.17208 5.21479 9.12258L11.6095 2.72785C11.659 2.67822 11.7178 2.63885 11.7826 2.61198C11.8473 2.58512 11.9167 2.57129 11.9868 2.57129C12.0569 2.57129 12.1263 2.58512 12.1911 2.61198C12.2558 2.63885 12.3146 2.67822 12.3641 2.72785Z" fill="white"/>
</svg>
