<svg width="18" height="19" viewBox="0 0 18 19" fill="none" xmlns="http://www.w3.org/2000/svg">
<path fill-rule="evenodd" clip-rule="evenodd" d="M5.6359 16.2722C5.58627 16.2227 5.5469 16.1638 5.52003 16.0991C5.49317 16.0344 5.47934 15.965 5.47934 15.8949C5.47934 15.8248 5.49317 15.7554 5.52003 15.6906C5.5469 15.6259 5.58627 15.5671 5.6359 15.5176L11.6544 9.50013L5.6359 3.48268C5.53584 3.38262 5.47962 3.2469 5.47962 3.10539C5.47962 2.96388 5.53584 2.82816 5.6359 2.7281C5.73596 2.62804 5.87168 2.57182 6.01319 2.57182C6.1547 2.57182 6.29042 2.62804 6.39048 2.7281L12.7852 9.12284C12.8348 9.17234 12.8742 9.23114 12.9011 9.29589C12.9279 9.36063 12.9418 9.43003 12.9418 9.50013C12.9418 9.57022 12.9279 9.63963 12.9011 9.70437C12.8742 9.76911 12.8348 9.82792 12.7852 9.87742L6.39048 16.2722C6.34098 16.3218 6.28217 16.3612 6.21743 16.388C6.15269 16.4149 6.08328 16.4287 6.01319 16.4287C5.94309 16.4287 5.87369 16.4149 5.80895 16.388C5.74421 16.3612 5.6854 16.3218 5.6359 16.2722Z" fill="white"/>
</svg>
