<svg width="80" height="80" viewBox="0 0 80 80" fill="none" xmlns="http://www.w3.org/2000/svg">
<path fill-rule="evenodd" clip-rule="evenodd" d="M56.7696 8.2296C57.0024 8.46183 57.1871 8.73771 57.3132 9.04143C57.4392 9.34516 57.5041 9.67077 57.5041 9.9996C57.5041 10.3284 57.4392 10.654 57.3132 10.9578C57.1871 11.2615 57.0024 11.5374 56.7696 11.7696L28.5346 39.9996L56.7696 68.2296C57.239 68.699 57.5028 69.3357 57.5028 69.9996C57.5028 70.6635 57.239 71.3002 56.7696 71.7696C56.3002 72.239 55.6635 72.5028 54.9996 72.5028C54.3357 72.5028 53.699 72.239 53.2296 71.7696L23.2296 41.7696C22.9968 41.5374 22.8121 41.2615 22.686 40.9578C22.56 40.654 22.4951 40.3284 22.4951 39.9996C22.4951 39.6708 22.56 39.3452 22.686 39.0414C22.8121 38.7377 22.9968 38.4618 23.2296 38.2296L53.2296 8.2296C53.4618 7.99679 53.7377 7.81207 54.0414 7.68604C54.3451 7.56001 54.6708 7.49513 54.9996 7.49513C55.3284 7.49513 55.654 7.56001 55.9578 7.68604C56.2615 7.81207 56.5374 7.99679 56.7696 8.2296Z" fill="black"/>
</svg>
