<svg width="50" height="50" viewBox="0 0 50 50" fill="none" xmlns="http://www.w3.org/2000/svg">
<path fill-rule="evenodd" clip-rule="evenodd" d="M7.8125 35.9375C7.8125 35.5231 7.97712 35.1257 8.27015 34.8326C8.56317 34.5396 8.9606 34.375 9.375 34.375H40.625C41.0394 34.375 41.4368 34.5396 41.7299 34.8326C42.0229 35.1257 42.1875 35.5231 42.1875 35.9375C42.1875 36.3519 42.0229 36.7493 41.7299 37.0424C41.4368 37.3354 41.0394 37.5 40.625 37.5H9.375C8.9606 37.5 8.56317 37.3354 8.27015 37.0424C7.97712 36.7493 7.8125 36.3519 7.8125 35.9375ZM7.8125 23.4375C7.8125 23.0231 7.97712 22.6257 8.27015 22.3326C8.56317 22.0396 8.9606 21.875 9.375 21.875H40.625C41.0394 21.875 41.4368 22.0396 41.7299 22.3326C42.0229 22.6257 42.1875 23.0231 42.1875 23.4375C42.1875 23.8519 42.0229 24.2493 41.7299 24.5424C41.4368 24.8354 41.0394 25 40.625 25H9.375C8.9606 25 8.56317 24.8354 8.27015 24.5424C7.97712 24.2493 7.8125 23.8519 7.8125 23.4375ZM7.8125 10.9375C7.8125 10.5231 7.97712 10.1257 8.27015 9.83265C8.56317 9.53962 8.9606 9.375 9.375 9.375H40.625C41.0394 9.375 41.4368 9.53962 41.7299 9.83265C42.0229 10.1257 42.1875 10.5231 42.1875 10.9375C42.1875 11.3519 42.0229 11.7493 41.7299 12.0424C41.4368 12.3354 41.0394 12.5 40.625 12.5H9.375C8.9606 12.5 8.56317 12.3354 8.27015 12.0424C7.97712 11.7493 7.8125 11.3519 7.8125 10.9375Z" fill="black"/>
</svg>
