<svg width="39" height="39" viewBox="0 0 39 39" fill="none" xmlns="http://www.w3.org/2000/svg">
<path fill-rule="evenodd" clip-rule="evenodd" d="M7.3125 34.125C7.3125 34.125 4.875 34.125 4.875 31.6875C4.875 29.25 7.3125 21.9375 19.5 21.9375C31.6875 21.9375 34.125 29.25 34.125 31.6875C34.125 34.125 31.6875 34.125 31.6875 34.125H7.3125ZM19.5 19.5C21.4394 19.5 23.2994 18.7296 24.6707 17.3582C26.0421 15.9869 26.8125 14.1269 26.8125 12.1875C26.8125 10.2481 26.0421 8.38814 24.6707 7.01678C23.2994 5.64542 21.4394 4.875 19.5 4.875C17.5606 4.875 15.7006 5.64542 14.3293 7.01678C12.9579 8.38814 12.1875 10.2481 12.1875 12.1875C12.1875 14.1269 12.9579 15.9869 14.3293 17.3582C15.7006 18.7296 17.5606 19.5 19.5 19.5Z" fill="black"/>
</svg>
