<svg width="19" height="19" viewBox="0 0 19 19" fill="none" xmlns="http://www.w3.org/2000/svg">
<g clip-path="url(#clip0_563_908)">
<path fill-rule="evenodd" clip-rule="evenodd" d="M6.91125 6.38527L9.39165 1.47103C9.43929 1.37217 9.51373 1.28868 9.60649 1.23005C9.69925 1.17142 9.80662 1.14001 9.91635 1.1394C10.1242 1.1394 10.332 1.24957 10.4445 1.47103L12.9249 6.38527L18.4876 7.17573C18.6262 7.19753 18.7531 7.26648 18.8469 7.37097C18.9406 7.47545 18.9954 7.60906 19.0021 7.74926C19.0098 7.84259 18.9965 7.93647 18.9631 8.02395C18.9297 8.11143 18.877 8.19028 18.809 8.25466L14.8079 12.0661L15.7505 17.438C15.8391 17.9412 15.3417 18.3353 14.9033 18.1104L9.91635 15.5482L4.9317 18.1104C4.87957 18.1375 4.82368 18.1566 4.76589 18.1672C4.37861 18.2353 4.00723 17.8787 4.08446 17.438L5.0271 12.0661L1.02711 8.25466C0.965133 8.19573 0.915916 8.1247 0.882509 8.04597C0.849103 7.96724 0.83222 7.88249 0.832906 7.79696C0.833197 7.67613 0.866161 7.55761 0.928306 7.45398C0.973052 7.3791 1.03404 7.31522 1.10677 7.26707C1.1795 7.21891 1.26212 7.18769 1.34852 7.17573L6.91125 6.38527ZM9.91635 14.2308C10.0072 14.2308 10.0981 14.2512 10.1798 14.2944L14.3661 16.4454L13.5779 11.9514C13.5593 11.848 13.5665 11.7415 13.5988 11.6415C13.6311 11.5415 13.6875 11.4509 13.763 11.3779L17.0634 8.23194L12.4615 7.57777C12.3662 7.56338 12.2758 7.52611 12.1981 7.46914C12.1203 7.41218 12.0576 7.33722 12.0152 7.25069L9.91862 3.09624L9.91635 3.09965V14.2297V14.2308Z" fill="#FDB820"/>
</g>
<defs>
<clipPath id="clip0_563_908">
<rect width="18.1714" height="18.1714" fill="white" transform="translate(0.828552 0.571533)"/>
</clipPath>
</defs>
</svg>
