<svg width="19" height="19" viewBox="0 0 19 19" fill="none" xmlns="http://www.w3.org/2000/svg">
<g clip-path="url(#clip0_563_584)">
<path fill-rule="evenodd" clip-rule="evenodd" d="M6.91137 6.38503L9.39177 1.47079C9.43941 1.37193 9.51385 1.28843 9.60661 1.2298C9.69938 1.17117 9.80674 1.13977 9.91647 1.13916C10.1243 1.13916 10.3321 1.24932 10.4446 1.47079L12.925 6.38503L18.4877 7.17548C18.6264 7.19728 18.7533 7.26624 18.847 7.37072C18.9407 7.4752 18.9955 7.60882 19.0022 7.74902C19.01 7.84235 18.9966 7.93622 18.9632 8.0237C18.9298 8.11119 18.8771 8.19003 18.8091 8.25441L14.808 12.0659L15.7506 17.4378C15.8392 17.9409 15.3418 18.335 14.9034 18.1101L9.91647 15.548L4.93182 18.1101C4.87969 18.1372 4.8238 18.1564 4.76601 18.1669C4.37873 18.2351 4.00735 17.8785 4.08458 17.4378L5.02722 12.0659L1.02724 8.25441C0.965256 8.19548 0.916038 8.12445 0.882631 8.04572C0.849225 7.96699 0.832342 7.88224 0.833028 7.79672C0.833319 7.67588 0.866283 7.55737 0.928428 7.45373C0.973174 7.37886 1.03416 7.31498 1.10689 7.26682C1.17962 7.21866 1.26224 7.18745 1.34864 7.17548L6.91137 6.38503ZM9.91647 14.2305C10.0073 14.2305 10.0982 14.251 10.18 14.2941L14.3662 16.4452L13.578 11.9512C13.5595 11.8477 13.5666 11.7413 13.5989 11.6413C13.6312 11.5412 13.6876 11.4507 13.7631 11.3776L17.0635 8.2317L12.4616 7.57753C12.3663 7.56314 12.2759 7.52586 12.1982 7.4689C12.1205 7.41193 12.0577 7.33697 12.0153 7.25044L9.91875 3.096L9.91647 3.0994V14.2294V14.2305Z" fill="#FDB820"/>
</g>
<defs>
<clipPath id="clip0_563_584">
<rect width="18.1714" height="18.1714" fill="white" transform="translate(0.828613 0.571289)"/>
</clipPath>
</defs>
</svg>
