<svg width="19" height="19" viewBox="0 0 19 19" fill="none" xmlns="http://www.w3.org/2000/svg">
<g clip-path="url(#clip0_563_1877)">
<path fill-rule="evenodd" clip-rule="evenodd" d="M6.91125 6.38515L9.39165 1.47091C9.43929 1.37205 9.51373 1.28855 9.60649 1.22992C9.69925 1.17129 9.80662 1.13989 9.91635 1.13928C10.1242 1.13928 10.332 1.24945 10.4445 1.47091L12.9249 6.38515L18.4876 7.17561C18.6262 7.1974 18.7531 7.26636 18.8469 7.37084C18.9406 7.47533 18.9954 7.60894 19.0021 7.74914C19.0098 7.84247 18.9965 7.93634 18.9631 8.02383C18.9297 8.11131 18.877 8.19016 18.809 8.25454L14.8079 12.066L15.7505 17.4379C15.8391 17.941 15.3417 18.3351 14.9033 18.1103L9.91635 15.5481L4.9317 18.1103C4.87957 18.1374 4.82368 18.1565 4.76589 18.1671C4.37861 18.2352 4.00723 17.8786 4.08446 17.4379L5.0271 12.066L1.02711 8.25454C0.965133 8.1956 0.915916 8.12457 0.882509 8.04584C0.849103 7.96711 0.83222 7.88236 0.832906 7.79684C0.833197 7.676 0.866161 7.55749 0.928306 7.45386C0.973052 7.37898 1.03404 7.3151 1.10677 7.26694C1.1795 7.21878 1.26212 7.18757 1.34852 7.17561L6.91125 6.38515ZM9.91635 14.2307C10.0072 14.2307 10.0981 14.2511 10.1798 14.2943L14.3661 16.4453L13.5779 11.9513C13.5593 11.8478 13.5665 11.7414 13.5988 11.6414C13.6311 11.5414 13.6875 11.4508 13.763 11.3778L17.0634 8.23182L12.4615 7.57765C12.3662 7.56326 12.2758 7.52599 12.1981 7.46902C12.1203 7.41205 12.0576 7.3371 12.0152 7.25056L9.91862 3.09612L9.91635 3.09953V14.2295V14.2307Z" fill="#FDB820"/>
</g>
<defs>
<clipPath id="clip0_563_1877">
<rect width="18.1714" height="18.1714" fill="white" transform="translate(0.828552 0.571411)"/>
</clipPath>
</defs>
</svg>
