<svg width="19" height="19" viewBox="0 0 19 19" fill="none" xmlns="http://www.w3.org/2000/svg">
<g clip-path="url(#clip0_563_1034)">
<path fill-rule="evenodd" clip-rule="evenodd" d="M6.85278 6.38527L9.33318 1.47103C9.38082 1.37217 9.45525 1.28868 9.54802 1.23005C9.64078 1.17142 9.74814 1.14001 9.85788 1.1394C10.0657 1.1394 10.2736 1.24957 10.386 1.47103L12.8664 6.38527L18.4291 7.17573C18.5678 7.19753 18.6947 7.26648 18.7884 7.37097C18.8821 7.47545 18.9369 7.60906 18.9436 7.74926C18.9514 7.84259 18.938 7.93647 18.9046 8.02395C18.8712 8.11143 18.8185 8.19028 18.7505 8.25466L14.7494 12.0661L15.692 17.438C15.7806 17.9412 15.2832 18.3353 14.8448 18.1104L9.85788 15.5482L4.87323 18.1104C4.8211 18.1375 4.76521 18.1566 4.70741 18.1672C4.32014 18.2353 3.94876 17.8787 4.02599 17.438L4.96863 12.0661L0.968641 8.25466C0.906662 8.19573 0.857444 8.1247 0.824038 8.04597C0.790631 7.96724 0.773748 7.88249 0.774434 7.79696C0.774726 7.67613 0.807689 7.55761 0.869834 7.45398C0.91458 7.3791 0.975568 7.31522 1.0483 7.26707C1.12103 7.21891 1.20364 7.18769 1.29005 7.17573L6.85278 6.38527ZM9.85788 14.2308C9.94874 14.2308 10.0396 14.2512 10.1214 14.2944L14.3076 16.4454L13.5194 11.9514C13.5009 11.848 13.508 11.7415 13.5403 11.6415C13.5726 11.5415 13.629 11.4509 13.7045 11.3779L17.0049 8.23194L12.403 7.57777C12.3077 7.56338 12.2173 7.52611 12.1396 7.46914C12.0619 7.41218 11.9991 7.33722 11.9567 7.25069L9.86015 3.09624L9.85788 3.09965V14.2297V14.2308Z" fill="#FDB820"/>
</g>
<defs>
<clipPath id="clip0_563_1034">
<rect width="18.1714" height="18.1714" fill="white" transform="translate(0.77002 0.571533)"/>
</clipPath>
</defs>
</svg>
