<svg width="19" height="19" viewBox="0 0 19 19" fill="none" xmlns="http://www.w3.org/2000/svg">
<g clip-path="url(#clip0_563_1065)">
<path fill-rule="evenodd" clip-rule="evenodd" d="M6.91137 6.38527L9.39177 1.47103C9.43941 1.37217 9.51385 1.28868 9.60661 1.23005C9.69938 1.17142 9.80674 1.14001 9.91647 1.1394C10.1243 1.1394 10.3321 1.24957 10.4446 1.47103L12.925 6.38527L18.4877 7.17573C18.6264 7.19753 18.7533 7.26648 18.847 7.37097C18.9407 7.47545 18.9955 7.60906 19.0022 7.74926C19.01 7.84259 18.9966 7.93647 18.9632 8.02395C18.9298 8.11143 18.8771 8.19028 18.8091 8.25466L14.808 12.0661L15.7506 17.438C15.8392 17.9412 15.3418 18.3353 14.9034 18.1104L9.91647 15.5482L4.93182 18.1104C4.87969 18.1375 4.8238 18.1566 4.76601 18.1672C4.37873 18.2353 4.00735 17.8787 4.08458 17.438L5.02722 12.0661L1.02724 8.25466C0.965256 8.19573 0.916038 8.1247 0.882631 8.04597C0.849225 7.96724 0.832342 7.88249 0.833028 7.79696C0.833319 7.67613 0.866283 7.55761 0.928428 7.45398C0.973174 7.3791 1.03416 7.31522 1.10689 7.26707C1.17962 7.21891 1.26224 7.18769 1.34864 7.17573L6.91137 6.38527ZM9.91647 14.2308C10.0073 14.2308 10.0982 14.2512 10.18 14.2944L14.3662 16.4454L13.578 11.9514C13.5595 11.848 13.5666 11.7415 13.5989 11.6415C13.6312 11.5415 13.6876 11.4509 13.7631 11.3779L17.0635 8.23194L12.4616 7.57777C12.3663 7.56338 12.2759 7.52611 12.1982 7.46914C12.1205 7.41218 12.0577 7.33722 12.0153 7.25069L9.91875 3.09624L9.91647 3.09965V14.2297V14.2308Z" fill="#FDB820"/>
</g>
<defs>
<clipPath id="clip0_563_1065">
<rect width="18.1714" height="18.1714" fill="white" transform="translate(0.828613 0.571533)"/>
</clipPath>
</defs>
</svg>
