<svg width="19" height="19" viewBox="0 0 19 19" fill="none" xmlns="http://www.w3.org/2000/svg">
<g clip-path="url(#clip0_563_615)">
<path fill-rule="evenodd" clip-rule="evenodd" d="M6.85424 6.38527L9.33465 1.47103C9.38228 1.37217 9.45672 1.28868 9.54948 1.23005C9.64225 1.17142 9.74961 1.14001 9.85935 1.1394C10.0672 1.1394 10.275 1.24957 10.3875 1.47103L12.8679 6.38527L18.4306 7.17573C18.5692 7.19753 18.6961 7.26648 18.7899 7.37097C18.8836 7.47545 18.9384 7.60906 18.9451 7.74926C18.9528 7.84259 18.9395 7.93647 18.9061 8.02395C18.8727 8.11143 18.82 8.19028 18.752 8.25466L14.7509 12.0661L15.6935 17.438C15.7821 17.9412 15.2847 18.3353 14.8463 18.1104L9.85935 15.5482L4.87469 18.1104C4.82256 18.1375 4.76667 18.1566 4.70888 18.1672C4.3216 18.2353 3.95022 17.8787 4.02745 17.438L4.97009 12.0661L0.970106 8.25466C0.908127 8.19573 0.858909 8.1247 0.825502 8.04597C0.792096 7.96724 0.775213 7.88249 0.775899 7.79696C0.776191 7.67613 0.809154 7.55761 0.871299 7.45398C0.916045 7.3791 0.977033 7.31522 1.04976 7.26707C1.12249 7.21891 1.20511 7.18769 1.29151 7.17573L6.85424 6.38527ZM9.85935 14.2308C9.9502 14.2308 10.0411 14.2512 10.1228 14.2944L14.3091 16.4454L13.5209 11.9514C13.5023 11.848 13.5095 11.7415 13.5418 11.6415C13.5741 11.5415 13.6305 11.4509 13.706 11.3779L17.0064 8.23194L12.4045 7.57777C12.3092 7.56338 12.2188 7.52611 12.1411 7.46914C12.0633 7.41218 12.0006 7.33722 11.9581 7.25069L9.86162 3.09624L9.85935 3.09965V14.2297V14.2308Z" fill="#FDB820"/>
</g>
<defs>
<clipPath id="clip0_563_615">
<rect width="18.1714" height="18.1714" fill="white" transform="translate(0.771484 0.571533)"/>
</clipPath>
</defs>
</svg>
