<svg width="19" height="19" viewBox="0 0 19 19" fill="none" xmlns="http://www.w3.org/2000/svg">
<g clip-path="url(#clip0_563_684)">
<path fill-rule="evenodd" clip-rule="evenodd" d="M6.91125 6.38503L9.39165 1.47079C9.43929 1.37193 9.51373 1.28843 9.60649 1.2298C9.69925 1.17117 9.80662 1.13977 9.91635 1.13916C10.1242 1.13916 10.332 1.24932 10.4445 1.47079L12.9249 6.38503L18.4876 7.17548C18.6262 7.19728 18.7531 7.26624 18.8469 7.37072C18.9406 7.4752 18.9954 7.60882 19.0021 7.74902C19.0098 7.84235 18.9965 7.93622 18.9631 8.0237C18.9297 8.11119 18.877 8.19003 18.809 8.25441L14.8079 12.0659L15.7505 17.4378C15.8391 17.9409 15.3417 18.335 14.9033 18.1101L9.91635 15.548L4.9317 18.1101C4.87957 18.1372 4.82368 18.1564 4.76589 18.1669C4.37861 18.2351 4.00723 17.8785 4.08446 17.4378L5.0271 12.0659L1.02711 8.25441C0.965133 8.19548 0.915916 8.12445 0.882509 8.04572C0.849103 7.96699 0.83222 7.88224 0.832906 7.79672C0.833197 7.67588 0.866161 7.55737 0.928306 7.45373C0.973052 7.37886 1.03404 7.31498 1.10677 7.26682C1.1795 7.21866 1.26212 7.18745 1.34852 7.17548L6.91125 6.38503ZM9.91635 14.2305C10.0072 14.2305 10.0981 14.251 10.1798 14.2941L14.3661 16.4452L13.5779 11.9512C13.5593 11.8477 13.5665 11.7413 13.5988 11.6413C13.6311 11.5412 13.6875 11.4507 13.763 11.3776L17.0634 8.2317L12.4615 7.57753C12.3662 7.56314 12.2758 7.52586 12.1981 7.4689C12.1203 7.41193 12.0576 7.33697 12.0152 7.25044L9.91862 3.096L9.91635 3.0994V14.2294V14.2305Z" fill="#FDB820"/>
</g>
<defs>
<clipPath id="clip0_563_684">
<rect width="18.1714" height="18.1714" fill="white" transform="translate(0.828552 0.571289)"/>
</clipPath>
</defs>
</svg>
