<svg width="19" height="19" viewBox="0 0 19 19" fill="none" xmlns="http://www.w3.org/2000/svg">
<g clip-path="url(#clip0_563_1360)">
<path fill-rule="evenodd" clip-rule="evenodd" d="M6.85351 6.38527L9.33391 1.47103C9.38155 1.37217 9.45599 1.28868 9.54875 1.23005C9.64151 1.17142 9.74888 1.14001 9.85861 1.1394C10.0664 1.1394 10.2743 1.24957 10.3867 1.47103L12.8671 6.38527L18.4299 7.17573C18.5685 7.19753 18.6954 7.26648 18.7891 7.37097C18.8829 7.47545 18.9377 7.60906 18.9443 7.74926C18.9521 7.84259 18.9388 7.93647 18.9053 8.02395C18.8719 8.11143 18.8193 8.19028 18.7513 8.25466L14.7501 12.0661L15.6928 17.438C15.7814 17.9412 15.2839 18.3353 14.8455 18.1104L9.85861 15.5482L4.87396 18.1104C4.82183 18.1375 4.76594 18.1566 4.70815 18.1672C4.32087 18.2353 3.94949 17.8787 4.02672 17.438L4.96936 12.0661L0.969374 8.25466C0.907394 8.19573 0.858176 8.1247 0.82477 8.04597C0.791364 7.96724 0.774481 7.88249 0.775167 7.79696C0.775458 7.67613 0.808422 7.55761 0.870567 7.45398C0.915312 7.3791 0.9763 7.31522 1.04903 7.26707C1.12176 7.21891 1.20438 7.18769 1.29078 7.17573L6.85351 6.38527ZM9.85861 14.2308C9.94947 14.2308 10.0403 14.2512 10.1221 14.2944L14.3083 16.4454L13.5202 11.9514C13.5016 11.848 13.5088 11.7415 13.5411 11.6415C13.5733 11.5415 13.6297 11.4509 13.7053 11.3779L17.0057 8.23194L12.4037 7.57777C12.3085 7.56338 12.2181 7.52611 12.1403 7.46914C12.0626 7.41218 11.9998 7.33722 11.9574 7.25069L9.86088 3.09624L9.85861 3.09965V14.2297V14.2308Z" fill="#FDB820"/>
</g>
<defs>
<clipPath id="clip0_563_1360">
<rect width="18.1714" height="18.1714" fill="white" transform="translate(0.770752 0.571533)"/>
</clipPath>
</defs>
</svg>
