<svg width="19" height="19" viewBox="0 0 19 19" fill="none" xmlns="http://www.w3.org/2000/svg">
<g clip-path="url(#clip0_563_1219)">
<path fill-rule="evenodd" clip-rule="evenodd" d="M6.91137 6.38515L9.39177 1.47091C9.43941 1.37205 9.51385 1.28855 9.60661 1.22992C9.69938 1.17129 9.80674 1.13989 9.91647 1.13928C10.1243 1.13928 10.3321 1.24945 10.4446 1.47091L12.925 6.38515L18.4877 7.17561C18.6264 7.1974 18.7533 7.26636 18.847 7.37084C18.9407 7.47533 18.9955 7.60894 19.0022 7.74914C19.01 7.84247 18.9966 7.93634 18.9632 8.02383C18.9298 8.11131 18.8771 8.19016 18.8091 8.25454L14.808 12.066L15.7506 17.4379C15.8392 17.941 15.3418 18.3351 14.9034 18.1103L9.91647 15.5481L4.93182 18.1103C4.87969 18.1374 4.8238 18.1565 4.76601 18.1671C4.37873 18.2352 4.00735 17.8786 4.08458 17.4379L5.02722 12.066L1.02724 8.25454C0.965256 8.1956 0.916038 8.12457 0.882631 8.04584C0.849225 7.96711 0.832342 7.88236 0.833028 7.79684C0.833319 7.676 0.866283 7.55749 0.928428 7.45386C0.973174 7.37898 1.03416 7.3151 1.10689 7.26694C1.17962 7.21878 1.26224 7.18757 1.34864 7.17561L6.91137 6.38515ZM9.91647 14.2307C10.0073 14.2307 10.0982 14.2511 10.18 14.2943L14.3662 16.4453L13.578 11.9513C13.5595 11.8478 13.5666 11.7414 13.5989 11.6414C13.6312 11.5414 13.6876 11.4508 13.7631 11.3778L17.0635 8.23182L12.4616 7.57765C12.3663 7.56326 12.2759 7.52599 12.1982 7.46902C12.1205 7.41205 12.0577 7.3371 12.0153 7.25056L9.91875 3.09612L9.91647 3.09953V14.2295V14.2307Z" fill="#FDB820"/>
</g>
<defs>
<clipPath id="clip0_563_1219">
<rect width="18.1714" height="18.1714" fill="white" transform="translate(0.828613 0.571411)"/>
</clipPath>
</defs>
</svg>
