<svg width="24" height="24" viewBox="0 0 24 24" fill="none" xmlns="http://www.w3.org/2000/svg">
<g clip-path="url(#clip0_242_150)">
<path fill-rule="evenodd" clip-rule="evenodd" d="M8.03376 7.6785L11.3098 1.188C11.3727 1.05743 11.471 0.94715 11.5935 0.869714C11.716 0.792279 11.8578 0.7508 12.0028 0.75C12.2773 0.75 12.5518 0.8955 12.7003 1.188L15.9763 7.6785L23.3233 8.7225C23.5064 8.75129 23.674 8.84237 23.7978 8.98036C23.9216 9.11836 23.994 9.29483 24.0028 9.48C24.013 9.60326 23.9954 9.72725 23.9513 9.84279C23.9071 9.95833 23.8376 10.0625 23.7478 10.1475L18.4633 15.1815L19.7083 22.2765C19.8253 22.941 19.1683 23.4615 18.5893 23.1645L12.0028 19.7805L5.41926 23.1645C5.35041 23.2003 5.27659 23.2256 5.20026 23.2395C4.68876 23.3295 4.19826 22.8585 4.30026 22.2765L5.54526 15.1815L0.262264 10.1475C0.180404 10.0697 0.115399 9.97585 0.0712779 9.87187C0.0271563 9.76789 0.00485774 9.65595 0.00576385 9.543C0.00614888 9.3834 0.0496856 9.22688 0.131764 9.09C0.190862 8.9911 0.271412 8.90674 0.367471 8.84313C0.463529 8.77953 0.572644 8.7383 0.686764 8.7225L8.03376 7.6785ZM12.0028 18.0405C12.1228 18.0405 12.2428 18.0675 12.3508 18.1245L17.8798 20.9655L16.8388 15.03C16.8142 14.8934 16.8237 14.7528 16.8664 14.6207C16.909 14.4886 16.9835 14.369 17.0833 14.2725L21.4423 10.1175L15.3643 9.2535C15.2384 9.23449 15.119 9.18526 15.0164 9.11003C14.9137 9.03479 14.8308 8.93579 14.7748 8.8215L12.0058 3.3345L12.0028 3.339V18.039V18.0405Z" fill="#FFF000"/>
</g>
<defs>
<clipPath id="clip0_242_150">
<rect width="24" height="24" fill="white"/>
</clipPath>
</defs>
</svg>
