<svg width="18" height="18" viewBox="0 0 18 18" fill="none" xmlns="http://www.w3.org/2000/svg">
<path fill-rule="evenodd" clip-rule="evenodd" d="M2.17216 2.46232V7.45997L9.8005 15.0883L14.7981 10.0907L7.16981 2.46232H2.17216ZM1.0824 2.46232C1.0824 2.1733 1.19721 1.89611 1.40158 1.69174C1.60595 1.48737 1.88314 1.37256 2.17216 1.37256H7.16981C7.45881 1.37262 7.73595 1.48747 7.94027 1.69186L15.5686 9.32019C15.7729 9.52456 15.8877 9.80169 15.8877 10.0907C15.8877 10.3796 15.7729 10.6568 15.5686 10.8611L10.571 15.8588C10.3666 16.0631 10.0895 16.1778 9.8005 16.1778C9.51153 16.1778 9.23439 16.0631 9.03003 15.8588L1.4017 8.23043C1.19731 8.02611 1.08246 7.74897 1.0824 7.45997V2.46232Z" fill="white"/>
<path fill-rule="evenodd" clip-rule="evenodd" d="M4.89661 5.73128C5.04112 5.73128 5.17971 5.67387 5.28189 5.57169C5.38408 5.4695 5.44149 5.33091 5.44149 5.1864C5.44149 5.04189 5.38408 4.9033 5.28189 4.80111C5.17971 4.69893 5.04112 4.64152 4.89661 4.64152C4.75209 4.64152 4.6135 4.69893 4.51132 4.80111C4.40913 4.9033 4.35172 5.04189 4.35172 5.1864C4.35172 5.33091 4.40913 5.4695 4.51132 5.57169C4.6135 5.67387 4.75209 5.73128 4.89661 5.73128ZM4.89661 6.82104C5.33014 6.82104 5.74592 6.64882 6.05247 6.34227C6.35903 6.03571 6.53125 5.61994 6.53125 5.1864C6.53125 4.75287 6.35903 4.33709 6.05247 4.03053C5.74592 3.72398 5.33014 3.55176 4.89661 3.55176C4.46307 3.55176 4.04729 3.72398 3.74074 4.03053C3.43418 4.33709 3.26196 4.75287 3.26196 5.1864C3.26196 5.61994 3.43418 6.03571 3.74074 6.34227C4.04729 6.64882 4.46307 6.82104 4.89661 6.82104Z" fill="white"/>
</svg>
