<svg width="18" height="18" viewBox="0 0 18 18" fill="none" xmlns="http://www.w3.org/2000/svg">
<path fill-rule="evenodd" clip-rule="evenodd" d="M2.17222 2.46208V7.45973L9.80056 15.0881L14.7982 10.0904L7.16987 2.46208H2.17222ZM1.08246 2.46208C1.08246 2.17305 1.19727 1.89587 1.40164 1.6915C1.60601 1.48713 1.8832 1.37231 2.17222 1.37231H7.16987C7.45887 1.37238 7.73601 1.48723 7.94033 1.69161L15.5687 9.31995C15.773 9.52431 15.8877 9.80145 15.8877 10.0904C15.8877 10.3794 15.773 10.6565 15.5687 10.8609L10.571 15.8585C10.3667 16.0628 10.0895 16.1776 9.80056 16.1776C9.51159 16.1776 9.23446 16.0628 9.03009 15.8585L1.40176 8.23019C1.19737 8.02587 1.08252 7.74873 1.08246 7.45973V2.46208Z" fill="white"/>
<path fill-rule="evenodd" clip-rule="evenodd" d="M4.89661 5.73128C5.04112 5.73128 5.17971 5.67387 5.28189 5.57169C5.38408 5.4695 5.44149 5.33091 5.44149 5.1864C5.44149 5.04189 5.38408 4.9033 5.28189 4.80111C5.17971 4.69893 5.04112 4.64152 4.89661 4.64152C4.75209 4.64152 4.6135 4.69893 4.51132 4.80111C4.40913 4.9033 4.35172 5.04189 4.35172 5.1864C4.35172 5.33091 4.40913 5.4695 4.51132 5.57169C4.6135 5.67387 4.75209 5.73128 4.89661 5.73128ZM4.89661 6.82104C5.33014 6.82104 5.74592 6.64882 6.05247 6.34227C6.35903 6.03571 6.53125 5.61994 6.53125 5.1864C6.53125 4.75287 6.35903 4.33709 6.05247 4.03053C5.74592 3.72398 5.33014 3.55176 4.89661 3.55176C4.46307 3.55176 4.04729 3.72398 3.74074 4.03053C3.43418 4.33709 3.26196 4.75287 3.26196 5.1864C3.26196 5.61994 3.43418 6.03571 3.74074 6.34227C4.04729 6.64882 4.46307 6.82104 4.89661 6.82104Z" fill="white"/>
</svg>
