<svg width="19" height="18" viewBox="0 0 19 18" fill="none" xmlns="http://www.w3.org/2000/svg">
<path fill-rule="evenodd" clip-rule="evenodd" d="M3.1143 2.46208V7.45973L10.7426 15.0881L15.7403 10.0904L8.11195 2.46208H3.1143ZM2.02454 2.46208C2.02454 2.17305 2.13935 1.89587 2.34372 1.6915C2.54809 1.48713 2.82528 1.37231 3.1143 1.37231H8.11195C8.40095 1.37238 8.67809 1.48723 8.88241 1.69161L16.5107 9.31995C16.715 9.52431 16.8298 9.80145 16.8298 10.0904C16.8298 10.3794 16.715 10.6565 16.5107 10.8609L11.5131 15.8585C11.3087 16.0628 11.0316 16.1776 10.7426 16.1776C10.4537 16.1776 10.1765 16.0628 9.97217 15.8585L2.34384 8.23019C2.13945 8.02587 2.0246 7.74873 2.02454 7.45973V2.46208Z" fill="white"/>
<path fill-rule="evenodd" clip-rule="evenodd" d="M5.83874 5.73128C5.98326 5.73128 6.12185 5.67387 6.22403 5.57169C6.32622 5.4695 6.38363 5.33091 6.38363 5.1864C6.38363 5.04189 6.32622 4.9033 6.22403 4.80111C6.12185 4.69893 5.98326 4.64152 5.83874 4.64152C5.69423 4.64152 5.55564 4.69893 5.45346 4.80111C5.35127 4.9033 5.29386 5.04189 5.29386 5.1864C5.29386 5.33091 5.35127 5.4695 5.45346 5.57169C5.55564 5.67387 5.69423 5.73128 5.83874 5.73128ZM5.83874 6.82104C6.27228 6.82104 6.68806 6.64882 6.99461 6.34227C7.30117 6.03571 7.47339 5.61994 7.47339 5.1864C7.47339 4.75287 7.30117 4.33709 6.99461 4.03053C6.68806 3.72398 6.27228 3.55176 5.83874 3.55176C5.40521 3.55176 4.98943 3.72398 4.68288 4.03053C4.37632 4.33709 4.2041 4.75287 4.2041 5.1864C4.2041 5.61994 4.37632 6.03571 4.68288 6.34227C4.98943 6.64882 5.40521 6.82104 5.83874 6.82104Z" fill="white"/>
</svg>
