<svg width="18" height="18" viewBox="0 0 18 18" fill="none" xmlns="http://www.w3.org/2000/svg">
<path fill-rule="evenodd" clip-rule="evenodd" d="M2.55229 2.46232V7.45997L10.1806 15.0883L15.1783 10.0907L7.54994 2.46232H2.55229ZM1.46252 2.46232C1.46252 2.1733 1.57734 1.89611 1.78171 1.69174C1.98608 1.48737 2.26326 1.37256 2.55229 1.37256H7.54994C7.83894 1.37262 8.11608 1.48747 8.3204 1.69186L15.9487 9.32019C16.153 9.52456 16.2678 9.80169 16.2678 10.0907C16.2678 10.3796 16.153 10.6568 15.9487 10.8611L10.9511 15.8588C10.7467 16.0631 10.4696 16.1778 10.1806 16.1778C9.89166 16.1778 9.61452 16.0631 9.41016 15.8588L1.78182 8.23043C1.57744 8.02611 1.46259 7.74897 1.46252 7.45997V2.46232Z" fill="white"/>
<path fill-rule="evenodd" clip-rule="evenodd" d="M5.27667 5.73128C5.42118 5.73128 5.55978 5.67387 5.66196 5.57169C5.76415 5.4695 5.82155 5.33091 5.82155 5.1864C5.82155 5.04189 5.76415 4.9033 5.66196 4.80111C5.55978 4.69893 5.42118 4.64152 5.27667 4.64152C5.13216 4.64152 4.99357 4.69893 4.89138 4.80111C4.7892 4.9033 4.73179 5.04189 4.73179 5.1864C4.73179 5.33091 4.7892 5.4695 4.89138 5.57169C4.99357 5.67387 5.13216 5.73128 5.27667 5.73128ZM5.27667 6.82104C5.71021 6.82104 6.12598 6.64882 6.43254 6.34227C6.73909 6.03571 6.91131 5.61994 6.91131 5.1864C6.91131 4.75287 6.73909 4.33709 6.43254 4.03053C6.12598 3.72398 5.71021 3.55176 5.27667 3.55176C4.84314 3.55176 4.42736 3.72398 4.1208 4.03053C3.81425 4.33709 3.64203 4.75287 3.64203 5.1864C3.64203 5.61994 3.81425 6.03571 4.1208 6.34227C4.42736 6.64882 4.84314 6.82104 5.27667 6.82104Z" fill="white"/>
</svg>
