<svg width="18" height="18" viewBox="0 0 18 18" fill="none" xmlns="http://www.w3.org/2000/svg">
<path fill-rule="evenodd" clip-rule="evenodd" d="M2.49516 2.46208V7.45973L10.1235 15.0881L15.1211 10.0904L7.49281 2.46208H2.49516ZM1.4054 2.46208C1.4054 2.17305 1.52021 1.89587 1.72458 1.6915C1.92895 1.48713 2.20613 1.37231 2.49516 1.37231H7.49281C7.78181 1.37238 8.05895 1.48723 8.26327 1.69161L15.8916 9.31995C16.0959 9.52431 16.2107 9.80145 16.2107 10.0904C16.2107 10.3794 16.0959 10.6565 15.8916 10.8609L10.894 15.8585C10.6896 16.0628 10.4125 16.1776 10.1235 16.1776C9.83453 16.1776 9.55739 16.0628 9.35303 15.8585L1.7247 8.23019C1.52031 8.02587 1.40546 7.74873 1.4054 7.45973V2.46208Z" fill="white"/>
<path fill-rule="evenodd" clip-rule="evenodd" d="M5.2196 5.73128C5.36412 5.73128 5.50271 5.67387 5.60489 5.57169C5.70708 5.4695 5.76449 5.33091 5.76449 5.1864C5.76449 5.04189 5.70708 4.9033 5.60489 4.80111C5.50271 4.69893 5.36412 4.64152 5.2196 4.64152C5.07509 4.64152 4.9365 4.69893 4.83432 4.80111C4.73213 4.9033 4.67472 5.04189 4.67472 5.1864C4.67472 5.33091 4.73213 5.4695 4.83432 5.57169C4.9365 5.67387 5.07509 5.73128 5.2196 5.73128ZM5.2196 6.82104C5.65314 6.82104 6.06892 6.64882 6.37547 6.34227C6.68203 6.03571 6.85425 5.61994 6.85425 5.1864C6.85425 4.75287 6.68203 4.33709 6.37547 4.03053C6.06892 3.72398 5.65314 3.55176 5.2196 3.55176C4.78607 3.55176 4.37029 3.72398 4.06374 4.03053C3.75718 4.33709 3.58496 4.75287 3.58496 5.1864C3.58496 5.61994 3.75718 6.03571 4.06374 6.34227C4.37029 6.64882 4.78607 6.82104 5.2196 6.82104Z" fill="white"/>
</svg>
