<svg width="18" height="18" viewBox="0 0 18 18" fill="none" xmlns="http://www.w3.org/2000/svg">
<path fill-rule="evenodd" clip-rule="evenodd" d="M2.55229 2.46214V7.45979L10.1806 15.0881L15.1783 10.0905L7.54994 2.46214H2.55229ZM1.46252 2.46214C1.46252 2.17311 1.57734 1.89593 1.78171 1.69156C1.98608 1.48719 2.26326 1.37238 2.55229 1.37238H7.54994C7.83894 1.37244 8.11608 1.48729 8.3204 1.69168L15.9487 9.32001C16.153 9.52437 16.2678 9.80151 16.2678 10.0905C16.2678 10.3794 16.153 10.6566 15.9487 10.8609L10.9511 15.8586C10.7467 16.0629 10.4696 16.1777 10.1806 16.1777C9.89166 16.1777 9.61452 16.0629 9.41016 15.8586L1.78182 8.23025C1.57744 8.02593 1.46259 7.74879 1.46252 7.45979V2.46214Z" fill="white"/>
<path fill-rule="evenodd" clip-rule="evenodd" d="M5.27667 5.7314C5.42118 5.7314 5.55978 5.674 5.66196 5.57181C5.76415 5.46963 5.82155 5.33103 5.82155 5.18652C5.82155 5.04201 5.76415 4.90342 5.66196 4.80123C5.55978 4.69905 5.42118 4.64164 5.27667 4.64164C5.13216 4.64164 4.99357 4.69905 4.89138 4.80123C4.7892 4.90342 4.73179 5.04201 4.73179 5.18652C4.73179 5.33103 4.7892 5.46963 4.89138 5.57181C4.99357 5.674 5.13216 5.7314 5.27667 5.7314ZM5.27667 6.82117C5.71021 6.82117 6.12598 6.64895 6.43254 6.34239C6.73909 6.03584 6.91131 5.62006 6.91131 5.18652C6.91131 4.75299 6.73909 4.33721 6.43254 4.03066C6.12598 3.7241 5.71021 3.55188 5.27667 3.55188C4.84314 3.55188 4.42736 3.7241 4.1208 4.03066C3.81425 4.33721 3.64203 4.75299 3.64203 5.18652C3.64203 5.62006 3.81425 6.03584 4.1208 6.34239C4.42736 6.64895 4.84314 6.82117 5.27667 6.82117Z" fill="white"/>
</svg>
