<svg width="18" height="18" viewBox="0 0 18 18" fill="none" xmlns="http://www.w3.org/2000/svg">
<path fill-rule="evenodd" clip-rule="evenodd" d="M2.49443 2.46208V7.45973L10.1228 15.0881L15.1204 10.0904L7.49207 2.46208H2.49443ZM1.40466 2.46208C1.40466 2.17305 1.51948 1.89587 1.72385 1.6915C1.92822 1.48713 2.2054 1.37231 2.49443 1.37231H7.49207C7.78107 1.37238 8.05821 1.48723 8.26254 1.69161L15.8909 9.31995C16.0952 9.52431 16.2099 9.80145 16.2099 10.0904C16.2099 10.3794 16.0952 10.6565 15.8909 10.8609L10.8932 15.8585C10.6889 16.0628 10.4117 16.1776 10.1228 16.1776C9.83379 16.1776 9.55666 16.0628 9.3523 15.8585L1.72396 8.23019C1.51958 8.02587 1.40472 7.74873 1.40466 7.45973V2.46208Z" fill="white"/>
<path fill-rule="evenodd" clip-rule="evenodd" d="M5.21887 5.73128C5.36338 5.73128 5.50198 5.67387 5.60416 5.57169C5.70635 5.4695 5.76375 5.33091 5.76375 5.1864C5.76375 5.04189 5.70635 4.9033 5.60416 4.80111C5.50198 4.69893 5.36338 4.64152 5.21887 4.64152C5.07436 4.64152 4.93577 4.69893 4.83358 4.80111C4.7314 4.9033 4.67399 5.04189 4.67399 5.1864C4.67399 5.33091 4.7314 5.4695 4.83358 5.57169C4.93577 5.67387 5.07436 5.73128 5.21887 5.73128ZM5.21887 6.82104C5.65241 6.82104 6.06818 6.64882 6.37474 6.34227C6.68129 6.03571 6.85351 5.61994 6.85351 5.1864C6.85351 4.75287 6.68129 4.33709 6.37474 4.03053C6.06818 3.72398 5.65241 3.55176 5.21887 3.55176C4.78534 3.55176 4.36956 3.72398 4.063 4.03053C3.75645 4.33709 3.58423 4.75287 3.58423 5.1864C3.58423 5.61994 3.75645 6.03571 4.063 6.34227C4.36956 6.64882 4.78534 6.82104 5.21887 6.82104Z" fill="white"/>
</svg>
