<svg width="18" height="18" viewBox="0 0 18 18" fill="none" xmlns="http://www.w3.org/2000/svg">
<path fill-rule="evenodd" clip-rule="evenodd" d="M2.17216 2.46208V7.45973L9.8005 15.0881L14.7981 10.0904L7.16981 2.46208H2.17216ZM1.0824 2.46208C1.0824 2.17305 1.19721 1.89587 1.40158 1.6915C1.60595 1.48713 1.88314 1.37231 2.17216 1.37231H7.16981C7.45881 1.37238 7.73595 1.48723 7.94027 1.69161L15.5686 9.31995C15.7729 9.52431 15.8877 9.80145 15.8877 10.0904C15.8877 10.3794 15.7729 10.6565 15.5686 10.8609L10.571 15.8585C10.3666 16.0628 10.0895 16.1776 9.8005 16.1776C9.51153 16.1776 9.23439 16.0628 9.03003 15.8585L1.4017 8.23019C1.19731 8.02587 1.08246 7.74873 1.0824 7.45973V2.46208Z" fill="white"/>
<path fill-rule="evenodd" clip-rule="evenodd" d="M4.89661 5.7314C5.04112 5.7314 5.17971 5.674 5.28189 5.57181C5.38408 5.46963 5.44149 5.33103 5.44149 5.18652C5.44149 5.04201 5.38408 4.90342 5.28189 4.80123C5.17971 4.69905 5.04112 4.64164 4.89661 4.64164C4.75209 4.64164 4.6135 4.69905 4.51132 4.80123C4.40913 4.90342 4.35172 5.04201 4.35172 5.18652C4.35172 5.33103 4.40913 5.46963 4.51132 5.57181C4.6135 5.674 4.75209 5.7314 4.89661 5.7314ZM4.89661 6.82117C5.33014 6.82117 5.74592 6.64895 6.05247 6.34239C6.35903 6.03584 6.53125 5.62006 6.53125 5.18652C6.53125 4.75299 6.35903 4.33721 6.05247 4.03066C5.74592 3.7241 5.33014 3.55188 4.89661 3.55188C4.46307 3.55188 4.04729 3.7241 3.74074 4.03066C3.43418 4.33721 3.26196 4.75299 3.26196 5.18652C3.26196 5.62006 3.43418 6.03584 3.74074 6.34239C4.04729 6.64895 4.46307 6.82117 4.89661 6.82117Z" fill="white"/>
</svg>
