<svg width="19" height="18" viewBox="0 0 19 18" fill="none" xmlns="http://www.w3.org/2000/svg">
<path fill-rule="evenodd" clip-rule="evenodd" d="M3.11357 2.46208V7.45973L10.7419 15.0881L15.7396 10.0904L8.11122 2.46208H3.11357ZM2.0238 2.46208C2.0238 2.17305 2.13862 1.89587 2.34299 1.6915C2.54736 1.48713 2.82454 1.37231 3.11357 1.37231H8.11122C8.40021 1.37238 8.67736 1.48723 8.88168 1.69161L16.51 9.31995C16.7143 9.52431 16.8291 9.80145 16.8291 10.0904C16.8291 10.3794 16.7143 10.6565 16.51 10.8609L11.5124 15.8585C11.308 16.0628 11.0309 16.1776 10.7419 16.1776C10.4529 16.1776 10.1758 16.0628 9.97144 15.8585L2.3431 8.23019C2.13872 8.02587 2.02387 7.74873 2.0238 7.45973V2.46208Z" fill="white"/>
<path fill-rule="evenodd" clip-rule="evenodd" d="M5.83801 5.73128C5.98252 5.73128 6.12112 5.67387 6.2233 5.57169C6.32549 5.4695 6.38289 5.33091 6.38289 5.1864C6.38289 5.04189 6.32549 4.9033 6.2233 4.80111C6.12112 4.69893 5.98252 4.64152 5.83801 4.64152C5.6935 4.64152 5.55491 4.69893 5.45272 4.80111C5.35054 4.9033 5.29313 5.04189 5.29313 5.1864C5.29313 5.33091 5.35054 5.4695 5.45272 5.57169C5.55491 5.67387 5.6935 5.73128 5.83801 5.73128ZM5.83801 6.82104C6.27155 6.82104 6.68732 6.64882 6.99388 6.34227C7.30043 6.03571 7.47266 5.61994 7.47266 5.1864C7.47266 4.75287 7.30043 4.33709 6.99388 4.03053C6.68732 3.72398 6.27155 3.55176 5.83801 3.55176C5.40448 3.55176 4.9887 3.72398 4.68215 4.03053C4.37559 4.33709 4.20337 4.75287 4.20337 5.1864C4.20337 5.61994 4.37559 6.03571 4.68215 6.34227C4.9887 6.64882 5.40448 6.82104 5.83801 6.82104Z" fill="white"/>
</svg>
