<svg width="19" height="18" viewBox="0 0 19 18" fill="none" xmlns="http://www.w3.org/2000/svg">
<path fill-rule="evenodd" clip-rule="evenodd" d="M3.11503 2.46208V7.45973L10.7434 15.0881L15.741 10.0904L8.11268 2.46208H3.11503ZM2.02527 2.46208C2.02527 2.17305 2.14008 1.89587 2.34445 1.6915C2.54882 1.48713 2.82601 1.37231 3.11503 1.37231H8.11268C8.40168 1.37238 8.67882 1.48723 8.88314 1.69161L16.5115 9.31995C16.7158 9.52431 16.8305 9.80145 16.8305 10.0904C16.8305 10.3794 16.7158 10.6565 16.5115 10.8609L11.5138 15.8585C11.3095 16.0628 11.0323 16.1776 10.7434 16.1776C10.4544 16.1776 10.1773 16.0628 9.9729 15.8585L2.34457 8.23019C2.14018 8.02587 2.02533 7.74873 2.02527 7.45973V2.46208Z" fill="white"/>
<path fill-rule="evenodd" clip-rule="evenodd" d="M5.83948 5.73128C5.98399 5.73128 6.12258 5.67387 6.22477 5.57169C6.32695 5.4695 6.38436 5.33091 6.38436 5.1864C6.38436 5.04189 6.32695 4.9033 6.22477 4.80111C6.12258 4.69893 5.98399 4.64152 5.83948 4.64152C5.69497 4.64152 5.55637 4.69893 5.45419 4.80111C5.352 4.9033 5.2946 5.04189 5.2946 5.1864C5.2946 5.33091 5.352 5.4695 5.45419 5.57169C5.55637 5.67387 5.69497 5.73128 5.83948 5.73128ZM5.83948 6.82104C6.27301 6.82104 6.68879 6.64882 6.99534 6.34227C7.3019 6.03571 7.47412 5.61994 7.47412 5.1864C7.47412 4.75287 7.3019 4.33709 6.99534 4.03053C6.68879 3.72398 6.27301 3.55176 5.83948 3.55176C5.40594 3.55176 4.99016 3.72398 4.68361 4.03053C4.37705 4.33709 4.20483 4.75287 4.20483 5.1864C4.20483 5.61994 4.37705 6.03571 4.68361 6.34227C4.99016 6.64882 5.40594 6.82104 5.83948 6.82104Z" fill="white"/>
</svg>
