<svg width="18" height="18" viewBox="0 0 18 18" fill="none" xmlns="http://www.w3.org/2000/svg">
<path fill-rule="evenodd" clip-rule="evenodd" d="M2.17222 2.46214V7.45979L9.80056 15.0881L14.7982 10.0905L7.16987 2.46214H2.17222ZM1.08246 2.46214C1.08246 2.17311 1.19727 1.89593 1.40164 1.69156C1.60601 1.48719 1.8832 1.37238 2.17222 1.37238H7.16987C7.45887 1.37244 7.73601 1.48729 7.94033 1.69168L15.5687 9.32001C15.773 9.52437 15.8877 9.80151 15.8877 10.0905C15.8877 10.3794 15.773 10.6566 15.5687 10.8609L10.571 15.8586C10.3667 16.0629 10.0895 16.1777 9.80056 16.1777C9.51159 16.1777 9.23446 16.0629 9.03009 15.8586L1.40176 8.23025C1.19737 8.02593 1.08252 7.74879 1.08246 7.45979V2.46214Z" fill="white"/>
<path fill-rule="evenodd" clip-rule="evenodd" d="M4.89661 5.7314C5.04112 5.7314 5.17971 5.674 5.28189 5.57181C5.38408 5.46963 5.44149 5.33103 5.44149 5.18652C5.44149 5.04201 5.38408 4.90342 5.28189 4.80123C5.17971 4.69905 5.04112 4.64164 4.89661 4.64164C4.75209 4.64164 4.6135 4.69905 4.51132 4.80123C4.40913 4.90342 4.35172 5.04201 4.35172 5.18652C4.35172 5.33103 4.40913 5.46963 4.51132 5.57181C4.6135 5.674 4.75209 5.7314 4.89661 5.7314ZM4.89661 6.82117C5.33014 6.82117 5.74592 6.64895 6.05247 6.34239C6.35903 6.03584 6.53125 5.62006 6.53125 5.18652C6.53125 4.75299 6.35903 4.33721 6.05247 4.03066C5.74592 3.7241 5.33014 3.55188 4.89661 3.55188C4.46307 3.55188 4.04729 3.7241 3.74074 4.03066C3.43418 4.33721 3.26196 4.75299 3.26196 5.18652C3.26196 5.62006 3.43418 6.03584 3.74074 6.34239C4.04729 6.64895 4.46307 6.82117 4.89661 6.82117Z" fill="white"/>
</svg>
