<svg width="18" height="18" viewBox="0 0 18 18" fill="none" xmlns="http://www.w3.org/2000/svg">
<path fill-rule="evenodd" clip-rule="evenodd" d="M2.49369 2.46208V7.45973L10.122 15.0881L15.1197 10.0904L7.49134 2.46208H2.49369ZM1.40393 2.46208C1.40393 2.17305 1.51874 1.89587 1.72311 1.6915C1.92748 1.48713 2.20467 1.37231 2.49369 1.37231H7.49134C7.78034 1.37238 8.05748 1.48723 8.2618 1.69161L15.8901 9.31995C16.0944 9.52431 16.2092 9.80145 16.2092 10.0904C16.2092 10.3794 16.0944 10.6565 15.8901 10.8609L10.8925 15.8585C10.6881 16.0628 10.411 16.1776 10.122 16.1776C9.83306 16.1776 9.55593 16.0628 9.35157 15.8585L1.72323 8.23019C1.51885 8.02587 1.40399 7.74873 1.40393 7.45973V2.46208Z" fill="white"/>
<path fill-rule="evenodd" clip-rule="evenodd" d="M5.21814 5.73128C5.36265 5.73128 5.50124 5.67387 5.60343 5.57169C5.70561 5.4695 5.76302 5.33091 5.76302 5.1864C5.76302 5.04189 5.70561 4.9033 5.60343 4.80111C5.50124 4.69893 5.36265 4.64152 5.21814 4.64152C5.07363 4.64152 4.93504 4.69893 4.83285 4.80111C4.73067 4.9033 4.67326 5.04189 4.67326 5.1864C4.67326 5.33091 4.73067 5.4695 4.83285 5.57169C4.93504 5.67387 5.07363 5.73128 5.21814 5.73128ZM5.21814 6.82104C5.65167 6.82104 6.06745 6.64882 6.37401 6.34227C6.68056 6.03571 6.85278 5.61994 6.85278 5.1864C6.85278 4.75287 6.68056 4.33709 6.37401 4.03053C6.06745 3.72398 5.65167 3.55176 5.21814 3.55176C4.7846 3.55176 4.36883 3.72398 4.06227 4.03053C3.75572 4.33709 3.5835 4.75287 3.5835 5.1864C3.5835 5.61994 3.75572 6.03571 4.06227 6.34227C4.36883 6.64882 4.7846 6.82104 5.21814 6.82104Z" fill="white"/>
</svg>
