<svg width="18" height="18" viewBox="0 0 18 18" fill="none" xmlns="http://www.w3.org/2000/svg">
<path fill-rule="evenodd" clip-rule="evenodd" d="M2.55229 2.46208V7.45973L10.1806 15.0881L15.1783 10.0904L7.54994 2.46208H2.55229ZM1.46252 2.46208C1.46252 2.17305 1.57734 1.89587 1.78171 1.6915C1.98608 1.48713 2.26326 1.37231 2.55229 1.37231H7.54994C7.83894 1.37238 8.11608 1.48723 8.3204 1.69161L15.9487 9.31995C16.153 9.52431 16.2678 9.80145 16.2678 10.0904C16.2678 10.3794 16.153 10.6565 15.9487 10.8609L10.9511 15.8585C10.7467 16.0628 10.4696 16.1776 10.1806 16.1776C9.89166 16.1776 9.61452 16.0628 9.41016 15.8585L1.78182 8.23019C1.57744 8.02587 1.46259 7.74873 1.46252 7.45973V2.46208Z" fill="white"/>
<path fill-rule="evenodd" clip-rule="evenodd" d="M5.27673 5.7314C5.42124 5.7314 5.55984 5.674 5.66202 5.57181C5.76421 5.46963 5.82161 5.33103 5.82161 5.18652C5.82161 5.04201 5.76421 4.90342 5.66202 4.80123C5.55984 4.69905 5.42124 4.64164 5.27673 4.64164C5.13222 4.64164 4.99363 4.69905 4.89144 4.80123C4.78926 4.90342 4.73185 5.04201 4.73185 5.18652C4.73185 5.33103 4.78926 5.46963 4.89144 5.57181C4.99363 5.674 5.13222 5.7314 5.27673 5.7314ZM5.27673 6.82117C5.71027 6.82117 6.12605 6.64895 6.4326 6.34239C6.73916 6.03584 6.91138 5.62006 6.91138 5.18652C6.91138 4.75299 6.73916 4.33721 6.4326 4.03066C6.12605 3.7241 5.71027 3.55188 5.27673 3.55188C4.8432 3.55188 4.42742 3.7241 4.12087 4.03066C3.81431 4.33721 3.64209 4.75299 3.64209 5.18652C3.64209 5.62006 3.81431 6.03584 4.12087 6.34239C4.42742 6.64895 4.8432 6.82117 5.27673 6.82117Z" fill="white"/>
</svg>
